# xmcd
#
# Track frame offsets: 
#        150
#        17223
#        34139
#        52564
#        67500
#        83080
#
# Disc length: 1399 seconds
#
# Revision: 1
# Processed by: cddbd v1.5.2PL0 Copyright (c) Steve Scherf et al.
# Submitted via: ExactAudioCopy v0.99pb3
#
DISCID=36057506
DTITLE=Various Artist - T For Texas, T From Tennessee
DYEAR=2009
DGENRE=Country
TTITLE0=Country Roads [Ryan Bingham and The Dead Horses]
TTITLE1=The Rose Hotel [Robert Earl Keen]
TTITLE2=Pantry (Acoustic Version) [Lyle Lovett]
TTITLE3=Sugarfoot [Black Joe Lewis and The Honeybears]
TTITLE4=Lost Highway [Willie Nelson With Kurt Nilsen]
TTITLE5=Waiting On The Stars To Fall [Hayes Carll]
EXTD=Lost Highway
EXTT0=
EXTT1=
EXTT2=
EXTT3=
EXTT4=
EXTT5=
PLAYORDER=
